<?xml version="1.0" standalone="no"?>
<!DOCTYPE svg PUBLIC "-//W3C//DTD SVG 20010904//EN"
 "http://www.w3.org/TR/2001/REC-SVG-20010904/DTD/svg10.dtd">
<svg version="1.0" xmlns="http://www.w3.org/2000/svg"
 width="2178.000000pt" height="398.000000pt" viewBox="0 0 2178.000000 398.000000"
 preserveAspectRatio="xMidYMid meet">

<g transform="translate(0.000000,398.000000) scale(0.100000,-0.100000)"
fill="#4250FF" stroke="none">
<path d="M20560 3905 c-509 -30 -1013 -56 -1120 -60 -107 -3 -202 -8 -210 -10
-8 -2 -134 -9 -280 -15 -216 -9 -272 -15 -306 -29 -36 -16 -43 -17 -60 -4 -29
22 -153 11 -215 -20 l-49 -24 -7 25 c-6 24 -7 24 -77 19 -39 -4 -141 -9 -226
-13 -85 -3 -177 -7 -205 -9 -27 -1 -241 -10 -475 -18 -429 -16 -525 -26 -640
-65 l-53 -18 -24 24 c-38 38 -98 28 -207 -37 l-89 -52 -34 33 c-31 30 -35 31
-44 16 -12 -21 -31 -24 -23 -4 3 8 -6 18 -25 25 -50 21 -92 20 -596 -17 l-251
-18 -43 -45 -43 -44 6 44 7 43 -88 -6 c-48 -4 -331 -18 -628 -32 -297 -14
-621 -29 -720 -34 -234 -11 -285 -18 -286 -39 0 -9 -13 -36 -27 -60 -23 -37
-36 -47 -82 -62 -30 -10 -55 -17 -56 -16 -1 1 -4 14 -8 30 -6 26 -5 27 29 27
43 0 75 15 75 35 0 18 -18 19 -56 5 -21 -8 -31 -8 -42 4 -12 12 -10 15 19 21
103 20 91 31 -33 27 -385 -9 -653 -34 -742 -68 -8 -3 -23 3 -34 14 -16 16 -26
18 -83 10 -35 -4 -107 -8 -159 -8 -162 0 -611 -19 -702 -30 -48 -6 -124 -21
-170 -34 -81 -24 -83 -24 -100 -6 -25 27 -78 34 -119 17 -19 -8 -68 -35 -111
-60 l-76 -45 -33 35 c-32 32 -34 33 -43 13 -10 -23 -31 -28 -22 -5 10 28 -83
60 -99 34 -5 -7 -46 -8 -123 -4 -72 4 -142 2 -182 -5 -36 -6 -272 -22 -525
-35 -253 -13 -534 -28 -625 -35 -91 -6 -172 -9 -181 -5 -21 8 -1908 -89 -2534
-130 l-220 -15 -35 -40 c-20 -22 -39 -40 -44 -40 -5 0 -6 17 -2 39 l6 39 -43
-4 c-59 -5 -385 -21 -827 -40 -206 -8 -382 -18 -390 -22 -8 -3 -31 -7 -50 -8
-364 -14 -419 -18 -468 -34 -48 -16 -57 -16 -83 -3 -46 23 -198 -5 -241 -44
-17 -15 -18 -14 -18 6 0 12 -7 24 -16 28 -17 6 -872 -34 -909 -43 -35 -8
-1473 -84 -1870 -99 -499 -19 -726 -40 -960 -89 -38 -8 -72 -13 -74 -11 -2 3
2 11 9 20 7 9 11 17 9 19 -3 3 -458 -19 -467 -23 -1 0 4 -14 13 -31 8 -16 15
-49 15 -74 0 -56 16 -68 45 -33 24 31 39 35 32 8 -2 -10 0 -26 5 -35 7 -13 4
-16 -21 -16 -42 0 -81 -20 -81 -41 0 -10 5 -30 12 -45 l12 -27 106 7 c58 4
154 15 213 25 85 14 109 15 115 5 5 -9 26 -10 87 -4 44 5 208 11 365 15 342 8
399 15 544 71 15 6 17 4 12 -14 -7 -21 -7 -21 141 -16 252 9 2266 113 2296
119 48 8 1550 85 1675 85 12 0 22 5 22 10 0 6 9 21 20 32 20 21 20 21 35 2 8
-10 15 -23 15 -28 0 -4 10 -6 23 -2 23 6 993 54 1237 61 80 2 390 20 690 39
520 33 849 50 1245 62 99 3 243 9 321 14 78 5 150 7 160 4 10 -2 145 4 299 14
244 17 281 22 290 37 5 10 20 30 32 45 21 25 21 28 5 45 -16 17 -14 17 42 11
32 -4 63 -9 67 -12 5 -3 6 -23 3 -44 l-6 -38 46 -7 c58 -9 324 11 342 25 10 9
10 18 -1 51 l-14 39 29 0 c28 0 30 -2 30 -39 0 -22 5 -43 10 -46 32 -20 420 3
420 24 0 4 -11 23 -25 43 -24 36 -33 68 -17 68 4 -1 18 -7 32 -15 28 -16 70
-20 70 -7 0 5 -9 17 -20 27 -11 10 -20 21 -20 25 0 4 26 11 58 14 31 4 65 9
75 12 13 4 17 -1 17 -20 0 -37 10 -56 30 -56 15 0 17 -6 13 -40 l-6 -40 45 0
c25 0 72 -3 106 -6 l60 -7 4 29 c3 25 8 29 36 31 18 1 40 4 49 7 12 5 14 1 9
-19 -6 -23 -4 -25 29 -25 34 0 35 1 35 40 0 39 1 40 36 40 20 0 48 9 64 20 16
11 42 23 59 26 34 7 40 24 16 44 -13 11 -13 15 -3 21 23 15 74 10 91 -9 22
-24 21 -32 -1 -32 -30 0 -115 -47 -171 -95 -42 -36 -48 -45 -30 -41 13 3 152
8 309 11 179 4 313 12 360 21 90 17 156 18 199 3 19 -7 54 -8 88 -4 l56 7 -5
63 c-5 57 -4 64 16 73 21 11 21 11 -2 11 -29 1 -24 25 5 29 14 2 31 -9 52 -34
35 -43 34 -53 -3 -29 l-26 17 0 -56 c0 -42 4 -58 15 -63 9 -3 325 11 703 32
378 21 791 42 917 47 197 8 232 12 244 26 10 13 15 14 18 4 4 -9 23 -11 76 -7
40 3 313 17 607 30 294 14 562 28 595 30 33 3 90 6 128 6 51 1 67 4 67 15 0 8
4 14 9 14 5 0 17 3 27 7 14 5 16 3 10 -12 -6 -17 -1 -18 81 -12 109 8 117 16
109 105 -5 59 -4 62 17 62 12 0 38 3 58 6 36 6 36 6 43 -36 5 -35 10 -41 26
-37 16 4 18 0 17 -36 l-2 -40 101 -5 101 -4 6 29 c5 27 8 28 54 27 62 -2 62
-2 38 -20 -19 -14 -17 -15 25 -12 44 3 45 4 45 38 0 33 2 35 31 32 21 -2 44 6
69 23 21 14 43 25 49 25 6 0 17 4 24 9 12 7 12 12 1 29 -17 27 -9 34 36 35 24
1 42 -6 56 -20 l21 -21 -53 -16 c-47 -14 -197 -112 -186 -122 4 -4 705 13 885
22 130 7 132 7 132 30 0 29 19 31 51 5 24 -19 32 -19 469 5 245 13 636 33 870
44 721 35 984 51 1000 61 8 5 29 18 45 29 31 21 81 28 70 10 -3 -5 -17 -10
-29 -10 -13 0 -29 -7 -36 -15 -11 -13 -2 -15 69 -15 45 0 91 4 101 10 10 5 31
30 46 55 16 25 32 45 37 45 14 0 7 -32 -14 -61 l-21 -30 294 6 c161 3 356 10
433 16 175 12 387 38 399 49 5 5 1 58 -8 123 -9 63 -14 121 -10 130 8 23 29
24 -1056 -38z m-554 -89 c7 -28 -11 -66 -30 -66 -9 0 -15 15 -18 45 -3 41 -1
45 19 45 16 0 25 -8 29 -24z m760 -15 c79 -36 66 -50 -25 -30 -54 11 -72 26
-50 40 20 12 29 11 75 -10z m-2896 -105 c0 -2 -7 -9 -15 -16 -12 -10 -15 -10
-15 4 0 9 7 16 15 16 8 0 15 -2 15 -4z m1205 -56 c-9 -10 -25 -20 -36 -23 -33
-9 -32 14 2 43 28 23 35 25 42 13 6 -9 3 -21 -8 -33z m-2491 11 c17 -19 17
-20 -13 -35 -28 -15 -31 -15 -45 6 -29 41 24 67 58 29z m2666 -41 c0 -17 -7
-20 -50 -20 -44 0 -50 -2 -50 -21 0 -11 -5 -19 -11 -17 -6 2 -10 7 -10 11 1 4
1 16 1 27 0 16 7 20 33 21 17 0 41 4 52 9 30 13 35 12 35 -10z m-2723 -14 c-3
-7 0 -19 6 -25 8 -8 5 -11 -10 -11 -25 0 -56 27 -48 41 10 15 58 11 52 -5z
m92 -39 c-13 -36 -12 -36 -58 -10 -8 5 24 35 44 43 27 10 29 7 14 -33z m1667
-19 c9 -14 -23 -38 -53 -38 -29 0 -29 14 -1 34 27 19 44 20 54 4z m-2722 -72
c14 -5 16 -10 9 -17 -17 -17 -83 8 -83 30 0 28 12 33 34 13 12 -11 30 -22 40
-26z m-2244 -11 c5 -14 15 -25 22 -25 24 0 -16 -29 -49 -36 -29 -6 -34 -3 -43
20 -14 39 -12 54 8 59 39 10 53 6 62 -18z m-610 -35 c0 -22 -3 -40 -7 -40 -16
0 -43 35 -43 57 0 18 5 23 25 23 23 0 25 -4 25 -40z m1045 0 c-6 -26 -4 -30
14 -30 35 0 24 -18 -19 -31 -31 -9 -43 -9 -55 1 -20 17 -19 28 3 26 12 -1 18
8 20 32 3 24 8 32 23 32 18 0 20 -4 14 -30z m1693 -6 c14 -4 17 -44 3 -44 -5
0 -11 9 -14 20 -4 17 -9 18 -38 10 -55 -16 -79 -13 -79 10 0 19 5 20 58 14 31
-3 63 -7 70 -10z m-2538 -16 c0 -7 -4 -17 -8 -23 -9 -13 -72 -17 -72 -4 0 5
15 16 33 24 40 18 47 18 47 3z m-1575 -18 c21 -23 21 -22 -22 -44 -33 -16 -44
-36 -21 -36 9 0 9 -3 1 -11 -9 -9 -18 -8 -38 5 -32 21 -27 42 9 39 28 -2 33 6
14 26 -11 10 -9 15 6 27 26 18 29 18 51 -6z m-392 -17 c9 -3 17 -9 17 -14 0
-5 9 -18 19 -28 19 -19 19 -20 -6 -37 -26 -17 -27 -16 -66 25 -32 35 -37 45
-26 57 7 8 19 12 28 8 9 -3 24 -9 34 -11z m-128 -33 c3 -5 2 -10 -4 -10 -5 0
-13 5 -16 10 -3 6 -2 10 4 10 5 0 13 -4 16 -10z m2084 -11 c28 -23 17 -43 -20
-37 -18 2 -25 10 -27 31 -4 33 13 35 47 6z m-1514 -16 c-4 -10 -10 -26 -12
-35 -6 -21 -12 -22 -36 -3 -18 13 -18 14 2 34 26 26 56 29 46 4z m-1614 -13
c33 0 21 -20 -23 -40 -46 -21 -93 -26 -83 -10 3 6 -3 10 -14 10 -12 0 -21 7
-21 15 0 23 32 36 79 30 24 -3 52 -5 62 -5z m1109 -29 c0 -14 -38 -24 -52 -14
-9 5 -3 10 17 14 17 4 31 7 33 8 1 0 2 -3 2 -8z m1970 0 c-17 -10 -140 -23
-140 -16 0 3 10 10 23 15 28 11 138 13 117 1z m-2451 -45 c12 -13 18 -26 13
-30 -13 -8 -82 16 -82 29 0 33 39 33 69 1z m-149 7 c-1 -25 -53 -58 -77 -49
-14 6 -13 10 7 31 22 23 70 35 70 18z m-639 -43 c10 -6 19 -17 19 -26 0 -12
-8 -14 -37 -8 -47 8 -49 10 -33 29 15 18 24 19 51 5z m733 -29 c18 -7 18 -8 0
-25 -14 -14 -27 -17 -63 -12 -53 7 -58 11 -41 31 13 16 71 19 104 6z m-3667
-136 c36 -22 42 -35 16 -35 -43 0 -63 12 -63 37 0 27 0 27 47 -2z m-130 -58
c34 0 44 -4 49 -19 3 -11 1 -25 -5 -31 -8 -8 -11 -5 -11 11 0 25 -7 26 -69 11
-46 -10 -60 -3 -61 30 0 10 7 11 28 5 15 -5 46 -8 69 -7z m-1487 -32 c0 -21
-47 -48 -67 -40 -16 5 -13 10 17 35 35 29 50 30 50 5z m-2047 -95 c7 -6 21
-17 32 -25 19 -14 19 -14 -7 -15 -16 0 -37 -9 -49 -21 -24 -24 -25 -24 -32 23
-4 29 -2 38 11 41 28 8 32 7 45 -3z m-2363 -29 c0 -11 5 -23 10 -26 25 -16 9
-41 -35 -54 -41 -12 -48 -12 -65 4 -29 27 -25 41 23 68 52 31 67 32 67 8z
m3608 -9 c-3 -18 -64 -40 -76 -28 -4 4 5 18 21 31 29 26 60 24 55 -3z m-3060
-23 c24 -8 31 -16 29 -32 -2 -18 3 -21 21 -19 43 6 24 -25 -24 -37 l-45 -12
-44 48 c-23 26 -41 51 -38 56 6 11 65 9 101 -4z m-724 -67 c8 -14 -24 -52 -44
-52 -15 0 -18 6 -15 28 2 15 4 28 4 30 2 6 50 1 55 -6z"/>
<path d="M20310 3482 c-31 -6 -35 -11 -41 -44 -7 -44 -34 -78 -61 -78 -17 0
-17 3 6 33 15 19 26 42 26 51 0 16 -7 17 -52 11 -133 -18 -251 -77 -349 -174
-115 -116 -201 -269 -252 -449 -19 -69 -21 -102 -21 -322 0 -233 2 -250 26
-342 53 -194 151 -364 264 -454 76 -60 175 -114 210 -114 17 0 21 -4 17 -19
-13 -52 160 -84 452 -85 199 -1 213 0 260 22 28 13 62 35 77 49 l28 26 -23 12
c-23 12 -26 53 -3 68 12 8 130 1 189 -12 25 -6 44 -4 67 7 71 34 193 205 244
342 61 160 80 299 73 518 -5 176 -12 226 -54 361 -23 75 -29 85 -59 97 -37 15
-49 30 -34 39 21 13 9 58 -30 115 -112 164 -286 278 -500 325 -80 17 -397 29
-460 17z m161 -78 c11 -14 10 -19 -10 -35 -13 -11 -36 -19 -52 -19 -25 0 -29
4 -29 28 0 16 3 32 7 35 13 13 71 7 84 -9z m-497 -212 c10 -17 -35 -52 -68
-52 -26 0 -18 19 17 40 35 22 43 24 51 12z m661 -27 c32 -9 80 -27 105 -41 60
-33 149 -123 192 -195 28 -47 37 -54 53 -48 34 13 37 10 30 -29 -3 -21 5 -125
20 -242 20 -148 25 -228 21 -286 -5 -70 -4 -83 10 -88 13 -5 8 -13 -24 -35
-45 -34 -78 -104 -68 -146 4 -14 3 -25 -1 -25 -19 0 -117 -97 -129 -127 -12
-28 -19 -33 -47 -33 -33 0 -97 -32 -97 -49 0 -27 -32 -40 -83 -35 -164 16
-286 50 -440 122 -94 44 -98 46 -92 73 4 19 -2 43 -19 77 -31 61 -37 65 -73
51 -15 -6 -64 -24 -108 -41 l-80 -29 25 26 c32 35 87 63 139 71 23 4 41 10 41
13 0 4 -6 30 -14 57 -92 314 -36 660 134 833 92 94 208 139 360 140 47 1 112
-6 145 -14z m553 -174 c22 -13 -73 -44 -113 -37 -74 14 -40 44 50 45 28 0 56
-3 63 -8z m-1520 -426 c40 -27 31 -31 -29 -13 -22 6 -39 17 -39 25 0 20 27 16
68 -12z m180 -65 c31 -25 20 -40 -29 -40 -44 0 -45 1 -23 35 19 30 22 30 52 5z
m1239 -765 c8 -22 3 -24 -46 -18 -40 5 -42 7 -26 20 25 18 64 17 72 -2z"/>
<path d="M16303 3454 c-20 -9 -15 -20 12 -32 37 -17 47 -15 43 11 -3 22 -29
32 -55 21z"/>
<path d="M18740 3385 c-80 -7 -167 -14 -195 -16 -42 -3 -53 -9 -70 -34 -23
-33 -65 -47 -65 -21 0 21 0 21 -69 -19 -67 -40 -71 -41 -71 -20 0 8 -11 22
-25 31 -14 9 -25 22 -25 29 0 10 -33 12 -152 8 -168 -5 -281 -23 -309 -49 -37
-34 -49 -127 -25 -186 31 -73 64 -80 357 -82 180 -1 241 -4 251 -14 10 -10 17
-113 30 -395 13 -296 21 -406 38 -490 16 -85 19 -115 10 -145 -13 -49 -13
-148 1 -175 6 -12 21 -32 32 -44 l20 -23 -20 0 c-37 0 -46 -24 -40 -99 7 -83
33 -138 84 -180 48 -39 124 -65 167 -57 36 7 116 59 116 76 0 15 -46 12 -87
-5 -45 -19 -46 -19 -38 4 4 13 0 23 -12 31 -14 9 3 10 75 6 92 -5 93 -4 102
20 14 36 12 79 -4 119 -8 18 -11 36 -8 40 5 5 4 86 -2 92 -1 2 -17 -2 -35 -7
-35 -10 -71 1 -71 21 0 6 4 8 9 5 5 -3 30 2 56 11 l47 16 -5 56 c-12 120 -61
1141 -55 1147 4 3 38 12 75 20 37 8 78 16 89 19 19 4 30 22 47 77 5 15 10 15
57 -3 27 -10 64 -19 80 -19 35 0 41 -17 8 -22 -13 -2 -24 -11 -26 -20 -3 -15
4 -18 40 -18 67 1 131 16 144 35 7 10 20 15 28 12 21 -8 62 47 77 104 22 84
-18 135 -124 159 -76 18 -340 20 -507 5z m24 -47 c-22 -73 -84 -148 -122 -148
-12 0 -13 3 -5 11 8 8 8 18 0 36 -13 30 12 68 69 100 51 30 67 30 58 1z m-226
-103 c11 -11 -23 -35 -49 -35 -21 0 -27 4 -23 15 4 10 0 15 -16 15 -13 0 -19
4 -14 11 6 11 91 6 102 -6z m662 8 c0 -17 -46 -53 -67 -53 -33 0 -29 17 10 40
32 20 57 26 57 13z m-952 -105 c18 -18 15 -28 -10 -28 -12 0 -29 -6 -37 -14
-21 -18 -61 -30 -61 -17 0 5 12 23 26 40 27 32 61 40 82 19z m1007 -18 c4 -6
-12 -10 -39 -10 -25 0 -46 5 -46 10 0 6 18 10 39 10 22 0 43 -4 46 -10z m-723
-91 c15 -8 19 -17 14 -39 -5 -27 -3 -29 46 -40 54 -11 81 -27 73 -41 -3 -4
-24 1 -48 11 -23 11 -54 20 -68 20 -22 0 -27 6 -32 33 -3 17 -8 40 -12 50 -8
20 -2 21 27 6z m43 -199 c40 -17 45 -23 35 -35 -13 -16 -40 -19 -76 -9 -16 4
-19 12 -16 35 2 16 6 29 7 29 2 0 24 -9 50 -20z m12 -151 c26 -10 27 -12 8
-19 -33 -14 -55 -12 -49 5 4 10 0 15 -15 15 -12 0 -21 5 -21 11 0 12 27 7 77
-12z m56 -108 c64 -28 63 -50 -3 -49 -51 1 -79 19 -94 62 -5 16 -3 18 21 13
16 -3 49 -15 76 -26z m-69 -470 c16 -16 25 -34 22 -40 -9 -14 -20 -14 -60 3
-29 12 -33 18 -29 40 7 35 32 33 67 -3z m124 -123 c-5 -15 -78 -24 -78 -10 0
16 13 22 48 22 22 0 32 -4 30 -12z m-73 -98 c-3 -5 -14 -10 -24 -10 -9 0 -26
-6 -36 -14 -24 -18 -80 1 -63 21 13 16 133 19 123 3z"/>
<path d="M17110 3289 c-84 -15 -89 -18 -66 -35 14 -10 17 -17 9 -25 -14 -14
-57 -2 -78 21 -14 15 -21 17 -35 8 -14 -9 -31 -9 -70 0 -72 17 -128 15 -176
-7 -34 -16 -50 -17 -100 -9 -32 5 -122 8 -199 6 -128 -4 -144 -6 -192 -31 -37
-19 -59 -40 -78 -72 -15 -24 -24 -49 -20 -55 3 -5 28 -10 54 -10 54 0 88 -23
60 -41 -8 -5 -21 -6 -29 -3 -28 11 -90 17 -90 9 0 -5 15 -21 33 -37 27 -24 30
-29 16 -38 -9 -5 -25 -17 -37 -27 l-21 -18 14 -200 c8 -110 18 -256 22 -325 8
-124 8 -125 33 -128 19 -2 32 7 54 38 17 22 33 40 37 40 11 0 -21 -92 -39
-112 -9 -11 -29 -18 -49 -18 -29 0 -33 -3 -33 -28 0 -15 5 -43 11 -62 6 -19
10 -58 10 -87 l-1 -52 53 -6 c39 -5 72 0 132 17 75 22 80 25 77 49 -2 14 5 36
16 49 l19 23 32 -22 c38 -27 48 -21 53 34 3 40 3 40 53 47 89 13 458 38 549
38 l88 0 -6 25 c-9 35 9 64 49 81 48 20 49 19 20 -23 -14 -21 -25 -49 -25 -62
0 -24 1 -24 76 -18 90 8 139 29 159 68 19 36 19 102 1 137 -33 64 -180 109
-316 97 -88 -7 -231 -37 -280 -58 -39 -16 -42 -14 42 -31 l27 -6 -20 -35 c-23
-39 -39 -45 -39 -16 0 10 -17 30 -40 45 -24 15 -38 31 -34 38 5 7 -4 9 -29 4
-19 -4 -55 -2 -79 3 -23 5 -75 13 -115 17 l-72 7 -25 -56 c-13 -30 -34 -61
-47 -67 -20 -11 -21 -10 -14 6 47 115 56 204 25 271 -18 41 -18 42 0 48 27 9
32 35 20 107 -16 102 -13 135 13 150 15 9 92 15 257 18 202 4 240 8 268 23 34
18 60 15 32 -4 -10 -7 41 -9 160 -6 139 3 184 7 218 21 73 31 118 106 72 121
-24 8 -47 40 -60 84 -9 32 -9 32 21 26 44 -10 38 22 -8 42 -46 20 -277 27
-363 12z m-113 -93 c-5 -12 -77 -9 -91 4 -4 4 -6 13 -2 18 8 13 98 -8 93 -22z
m-627 -2 c29 -12 -23 -23 -108 -23 -63 -1 -83 2 -80 12 11 31 117 37 188 11z
m427 -91 c14 -20 12 -23 -17 -38 -18 -9 -33 -15 -34 -13 -20 31 -36 58 -36 62
0 5 49 14 64 11 5 0 16 -11 23 -22z m-513 -159 c10 -26 7 -44 -8 -44 -22 0
-60 35 -52 48 11 17 53 15 60 -4z m67 -447 c42 -28 58 -80 39 -126 -10 -26
-17 -30 -34 -24 -11 3 -39 9 -60 12 l-40 6 32 27 c17 14 37 29 44 31 10 4 8 9
-4 17 -22 13 -23 30 -3 30 23 0 18 26 -7 38 -13 6 -18 11 -12 11 6 1 26 -9 45
-22z m167 -161 c-16 -5 -28 -15 -28 -22 0 -19 28 -37 50 -31 25 6 36 -9 20
-28 -8 -10 -31 -15 -62 -15 -45 0 -49 -2 -43 -20 6 -17 2 -20 -29 -20 -30 0
-36 -4 -36 -21 0 -15 -4 -19 -16 -15 -9 3 -20 6 -25 6 -5 0 -9 27 -9 60 0 51
3 60 18 60 10 0 47 18 83 39 53 32 67 37 84 28 19 -10 19 -11 -7 -21z m497 -8
c53 -26 55 -43 7 -71 l-34 -20 3 43 c3 40 1 45 -26 56 -18 8 -23 13 -13 14 10
0 38 -10 63 -22z"/>
<path d="M16403 2284 c-41 -20 -43 -44 -5 -44 37 0 67 22 59 44 -8 20 -13 20
-54 0z"/>
<path d="M14810 3210 c-69 -5 -170 -16 -225 -24 -119 -18 -166 -46 -204 -121
-34 -65 -41 -179 -16 -235 13 -29 14 -42 6 -58 -14 -26 -14 -86 -1 -134 10
-35 12 -37 35 -26 32 14 32 43 -1 73 -27 26 -25 45 6 45 10 0 22 5 25 10 11
17 23 11 27 -12 2 -13 13 -27 26 -33 29 -13 28 -20 -8 -47 -32 -24 -35 -43 -5
-43 10 0 22 -10 26 -23 9 -25 8 -25 -116 -8 -14 2 -12 -105 5 -321 l14 -181
30 -10 31 -9 -33 -13 -32 -12 5 -107 c4 -58 10 -126 15 -151 5 -25 5 -62 0
-83 -12 -57 -4 -77 34 -77 41 0 71 -21 63 -44 -5 -12 -14 -15 -27 -12 -11 3
-28 8 -39 11 -16 5 -20 -2 -25 -48 -7 -50 0 -107 11 -107 3 0 21 14 40 30 31
28 73 41 73 23 0 -5 -26 -22 -58 -39 -54 -29 -57 -32 -54 -65 5 -47 30 -98 59
-116 22 -15 26 -14 54 6 16 12 29 18 29 13 0 -5 -10 -16 -22 -24 -28 -19 -16
-38 26 -38 21 0 49 11 76 31 24 17 62 38 86 46 30 10 44 21 44 33 0 9 9 29 20
43 26 33 25 37 -7 37 -18 0 -40 13 -65 37 -36 35 -38 36 -57 19 -11 -10 -22
-13 -25 -8 -6 11 28 37 69 52 17 6 25 17 25 33 0 31 27 67 51 67 24 0 24 8 4
205 -18 173 -13 260 16 276 33 17 112 22 174 9 61 -12 90 -25 275 -123 101
-54 107 -62 51 -69 -22 -3 -18 -11 60 -108 46 -58 91 -116 100 -129 16 -25 19
-25 94 5 17 7 16 3 -7 -25 -49 -58 -30 -149 38 -177 25 -10 34 -21 34 -37 0
-24 28 -56 67 -76 13 -7 20 -17 17 -26 -4 -9 3 -19 20 -26 22 -11 28 -9 45 12
11 13 20 27 21 32 0 17 42 6 47 -13 6 -24 6 -24 45 -4 17 9 52 22 78 30 26 8
53 21 60 29 19 23 5 83 -29 132 -18 26 -28 49 -24 59 6 17 -12 34 -39 34 -9 0
-29 5 -44 10 l-27 11 23 24 c28 30 24 49 -27 132 -52 85 -137 178 -259 284
-81 72 -101 94 -97 110 7 26 29 35 48 19 25 -21 60 6 92 69 15 31 30 58 31 61
2 3 14 -7 27 -22 26 -30 45 -36 45 -15 0 7 16 29 36 48 56 52 110 141 129 213
14 50 17 91 13 178 -4 101 -8 121 -35 180 -35 75 -83 131 -165 195 -76 58
-125 79 -234 99 -106 19 -501 27 -694 14z m664 -166 c41 -14 46 -18 34 -31
-12 -12 -20 -11 -54 4 -23 10 -39 24 -36 31 5 15 -1 15 56 -4z m209 -87 c23
-58 22 -62 -21 -79 -36 -14 -38 -14 -55 8 -9 13 -38 29 -65 37 l-47 13 65 22
c36 12 72 27 80 32 22 14 24 13 43 -33z m-545 -46 c151 -13 216 -22 290 -42
34 -10 46 -19 57 -46 8 -18 28 -41 45 -51 32 -18 35 -27 20 -66 -5 -14 -15
-75 -21 -136 -12 -106 -13 -110 -36 -110 -28 0 -103 -36 -103 -50 0 -6 12 -10
27 -10 24 0 25 -2 13 -14 -12 -11 -26 -12 -72 -3 -32 6 -61 8 -64 4 -3 -3 2
-17 13 -31 13 -19 27 -25 55 -26 20 0 40 -4 43 -10 4 -6 -12 -10 -39 -10 -48
0 -60 -16 -31 -40 11 -9 21 -9 46 4 18 9 33 15 33 14 8 -23 27 -44 45 -48 61
-14 1 -49 -75 -43 -47 4 -51 7 -63 38 -20 56 -65 59 -54 3 5 -23 2 -34 -11
-44 -10 -7 -15 -18 -11 -24 5 -8 13 -6 26 6 11 9 22 14 26 10 10 -10 -18 -34
-50 -41 -24 -6 -29 -3 -41 26 -8 19 -16 50 -18 69 -3 33 -2 35 36 41 22 4 46
15 53 25 12 17 11 21 -7 36 -34 28 -84 32 -259 19 -216 -15 -231 -15 -231 4 0
8 -10 43 -21 76 -20 56 -20 63 -5 71 12 7 14 14 7 26 -11 21 -15 135 -8 252
l5 85 39 7 c87 17 163 41 175 56 11 13 13 13 16 0 2 -11 35 -17 150 -27z m326
20 c3 -5 -4 -11 -16 -14 -27 -8 -79 3 -72 14 7 12 81 12 88 0z m-844 -94 c0
-1 -9 -20 -20 -42 -11 -22 -20 -50 -20 -62 0 -28 -11 -29 -34 -4 -21 24 -15
49 21 85 21 21 53 35 53 23z m8 -288 c7 -12 12 -22 10 -24 -2 -1 -33 -6 -70
-10 -80 -8 -90 6 -25 35 55 24 70 24 85 -1z m1262 -18 c0 -5 -16 -15 -35 -21
-20 -7 -43 -23 -52 -36 -11 -17 -19 -22 -26 -15 -14 14 10 40 58 62 46 21 55
23 55 10z m-1340 -109 c0 -5 -13 -21 -29 -36 -27 -26 -30 -27 -39 -10 -16 28
3 54 38 54 17 0 30 -4 30 -8z m118 -494 c13 -47 4 -54 -29 -22 -36 34 -37 54
-4 54 19 0 26 -7 33 -32z m-188 -224 c0 -18 -14 -18 -30 1 -16 19 -3 40 16 24
8 -6 14 -18 14 -25z m155 -308 c8 -13 13 -31 9 -40 -7 -18 -24 -22 -24 -5 0
10 -17 10 -69 -3 -8 -2 -15 2 -18 9 -2 6 9 14 26 18 17 4 33 15 36 26 8 25 21
24 40 -5z m125 -45 c13 -25 1 -33 -39 -25 -35 7 -39 18 -13 33 26 15 40 13 52
-8z"/>
<path d="M11060 3179 l-25 -10 25 -14 c47 -27 81 -10 48 23 -14 14 -15 14 -48
1z"/>
<path d="M13360 3120 c-58 -4 -134 -15 -170 -25 -85 -22 -209 -87 -262 -137
-24 -22 -62 -48 -85 -59 -60 -29 -125 -104 -171 -195 -99 -198 -180 -701 -119
-735 11 -7 17 -22 17 -49 0 -52 24 -172 49 -244 43 -123 162 -303 240 -365 47
-37 115 -71 141 -71 16 0 20 -4 15 -19 -4 -15 3 -22 36 -35 94 -38 204 -58
350 -63 164 -6 199 -2 249 29 27 16 48 21 92 19 64 -3 122 18 176 63 33 29 45
63 17 52 -8 -3 -15 -1 -15 3 0 13 26 21 65 21 21 0 35 6 39 16 5 14 0 15 -37
10 -40 -6 -44 -5 -55 19 -10 22 -9 25 10 25 27 0 150 68 143 79 -2 5 -26 12
-51 16 -41 6 -45 8 -32 21 13 13 18 13 46 -3 24 -14 34 -15 43 -6 9 9 9 16 -2
29 -11 14 -24 15 -79 9 -83 -9 -110 -8 -126 6 -29 24 -16 39 36 39 35 0 52 5
58 16 11 20 21 18 109 -31 74 -41 88 -55 54 -55 -25 0 -38 -20 -20 -31 38 -24
55 -10 93 70 67 144 81 284 36 359 -21 35 -74 72 -103 72 -20 0 -50 -61 -71
-145 -12 -44 -17 -50 -45 -56 -18 -4 -40 -14 -50 -23 -10 -9 -27 -16 -38 -16
-24 0 -113 -112 -113 -142 0 -10 -4 -18 -10 -18 -5 0 -10 -14 -10 -31 l0 -31
-20 23 c-10 13 -19 18 -20 11 0 -7 -16 -20 -35 -29 -48 -23 -44 -40 13 -47 84
-12 143 -28 139 -39 -4 -14 -157 -69 -174 -63 -20 8 3 51 36 67 26 12 25 13
-24 21 -74 13 -190 2 -249 -25 -34 -14 -66 -21 -93 -19 -42 3 -62 22 -23 22
11 0 20 5 20 11 0 11 -43 8 -87 -6 -16 -5 -23 -2 -27 12 -3 10 -23 27 -43 38
-21 11 -58 39 -83 62 -37 33 -52 41 -82 40 -53 -1 -91 35 -48 46 29 8 25 38
-15 105 -22 39 -32 66 -28 80 7 28 -13 29 -47 2 -23 -18 -60 -27 -60 -14 0 24
24 44 53 44 31 0 32 2 32 40 0 31 -4 41 -20 46 -19 7 -19 7 3 15 20 8 23 14
17 41 -18 88 -27 107 -56 113 -15 4 -33 13 -40 21 -10 12 -9 13 4 8 8 -3 26 2
40 11 21 13 25 25 29 88 4 51 17 103 47 181 22 59 47 138 54 173 12 62 15 66
50 78 20 7 55 29 77 49 22 20 47 36 55 36 28 0 48 47 42 95 -4 25 -2 47 3 50
6 3 10 -2 10 -12 0 -30 38 -83 60 -83 23 0 24 5 9 49 -8 24 -8 36 0 44 17 17
49 -18 43 -48 -3 -20 0 -25 14 -25 11 0 28 7 38 15 27 21 46 19 46 -5 0 -17 7
-20 38 -20 50 0 136 -26 153 -46 21 -26 86 -54 124 -54 35 0 35 0 35 -43 0
-50 38 -112 82 -136 22 -11 26 -19 21 -46 -4 -26 0 -36 22 -53 31 -25 69 -27
147 -11 106 23 158 64 158 127 0 38 -11 62 -52 113 -23 28 -27 41 -22 67 6 29
4 33 -24 43 -27 9 -30 14 -26 39 8 39 -9 64 -69 105 l-52 35 -11 -32 c-6 -18
-18 -34 -26 -36 -14 -3 -14 3 -6 43 5 25 8 52 5 59 -9 23 -171 95 -258 115
-105 24 -214 31 -349 21z m-36 -174 c-2 -6 -13 -17 -24 -24 -18 -11 -20 -10
-20 17 0 25 3 28 24 24 14 -3 23 -10 20 -17z m751 -216 c3 -11 17 -28 30 -39
31 -24 15 -41 -33 -34 -24 4 -36 13 -43 30 -17 44 -11 54 33 62 4 0 9 -8 13
-19z m-1240 -64 c11 -7 29 -16 40 -18 17 -4 14 -8 -17 -23 -35 -17 -38 -17
-62 -1 -33 21 -35 56 -3 56 12 0 31 -6 42 -14z m1089 8 c25 -10 18 -38 -14
-56 -29 -16 -30 -16 -30 1 0 10 -7 24 -15 31 -8 7 -12 16 -9 21 6 10 45 12 68
3z m264 -76 c-6 -44 -122 -43 -136 0 -3 10 4 12 29 7 19 -3 45 -2 59 4 40 16
52 13 48 -11z m-1483 -117 c10 -31 85 -91 114 -91 25 0 25 -1 -12 -31 -20 -17
-37 -39 -37 -49 0 -15 -11 -19 -61 -25 -33 -4 -63 -4 -67 -1 -3 4 1 19 10 34
11 18 13 33 7 44 -7 12 -2 18 21 28 36 15 42 45 8 37 -13 -2 -31 -8 -40 -11
-11 -5 -20 -1 -28 13 -9 18 -7 25 14 46 30 30 62 32 71 6z m155 -164 c0 -1 -8
-19 -19 -39 -16 -32 -21 -35 -35 -25 -16 12 -16 15 4 40 12 15 28 27 36 27 8
0 14 -1 14 -3z m-100 -120 c12 -8 17 -18 12 -21 -5 -3 -15 1 -23 10 -7 8 -24
14 -38 12 -18 -2 -27 2 -29 14 -3 14 1 16 27 8 17 -5 40 -15 51 -23z m30 -89
c0 -28 -18 -35 -94 -42 -44 -4 -84 -8 -89 -9 -5 -1 -12 4 -15 12 -3 10 1 12
19 8 12 -3 29 -1 37 5 14 12 95 36 125 37 9 1 17 -5 17 -11z m-86 -107 c-19
-18 -83 -32 -100 -23 -14 8 -11 11 17 20 62 20 103 21 83 3z m72 -182 c42 -20
102 -85 90 -96 -3 -4 -22 1 -41 10 -34 16 -36 16 -71 -8 -42 -29 -66 -31 -85
-9 -11 13 -9 14 14 9 36 -9 35 8 -3 52 -25 28 -29 38 -19 49 16 20 66 17 115
-7z m-111 -129 c-3 -5 -13 -10 -21 -10 -8 0 -14 5 -14 10 0 6 9 10 21 10 11 0
17 -4 14 -10z m125 -57 c0 -21 4 -23 52 -23 58 0 55 -11 -7 -30 -22 -7 -50
-19 -63 -27 -21 -13 -25 -12 -42 9 -25 30 -25 48 -1 48 17 0 19 5 14 35 -6 36
-6 36 21 24 17 -8 26 -20 26 -36z m324 -190 l19 -42 71 6 c60 5 69 3 58 -8
-10 -10 -36 -13 -100 -11 -48 2 -90 6 -95 11 -12 12 4 92 17 88 6 -2 20 -22
30 -44z m571 -71 c-3 -3 -11 0 -18 7 -9 10 -8 11 6 5 10 -3 15 -9 12 -12z
m-215 -37 c9 -8 33 -21 54 -28 l37 -13 -23 -34 c-29 -43 -48 -44 -61 -5 -5 17
-18 42 -28 57 -11 14 -19 29 -19 32 0 11 23 6 40 -9z m270 -15 c0 -17 -47 -60
-65 -60 -32 0 -6 48 35 63 23 9 30 8 30 -3z m-65 -99 c-8 -14 -95 -15 -95 -2
0 6 21 11 48 13 54 3 56 3 47 -11z m-612 2 c-7 -2 -19 -2 -25 0 -7 3 -2 5 12
5 14 0 19 -2 13 -5z"/>
<path d="M11882 3016 c-90 -15 -106 -22 -79 -37 9 -6 15 -14 12 -20 -11 -17
-53 -9 -76 15 -21 22 -26 23 -40 10 -14 -13 -24 -12 -83 1 -71 17 -120 13
-169 -12 -24 -12 -43 -13 -120 -3 -96 13 -261 7 -330 -11 -65 -17 -147 -107
-133 -146 5 -12 16 -14 49 -9 49 8 91 -13 70 -35 -9 -9 -23 -9 -63 1 -68 16
-86 1 -36 -30 20 -12 36 -26 36 -30 0 -5 -13 -17 -30 -26 -16 -10 -32 -24 -35
-31 -2 -8 2 -107 10 -221 8 -114 17 -256 19 -316 3 -104 5 -110 27 -118 19 -7
29 -2 62 34 38 43 38 43 32 13 -4 -16 -13 -45 -22 -62 -13 -29 -20 -33 -55
-33 l-40 0 6 -47 c3 -27 8 -81 12 -120 l7 -73 61 0 c33 0 94 10 133 21 66 20
72 24 67 44 -7 30 12 65 35 65 10 0 26 -9 36 -20 25 -28 45 -9 45 42 0 22 5
40 13 42 39 11 592 48 631 42 46 -7 47 -7 40 18 -9 36 4 64 36 81 45 23 54 18
31 -19 -12 -18 -21 -43 -21 -55 0 -19 5 -21 58 -21 72 0 125 15 159 44 37 32
44 116 13 164 -62 100 -281 120 -542 50 -43 -11 -78 -24 -78 -28 0 -4 22 -10
49 -14 l50 -7 -20 -34 c-20 -34 -54 -50 -43 -21 4 9 -9 24 -35 42 -23 15 -41
32 -41 39 0 9 -8 11 -27 6 -14 -4 -54 -1 -87 6 -34 7 -89 13 -122 13 l-61 0
-17 -44 c-16 -40 -51 -85 -60 -75 -2 2 6 36 20 74 29 85 30 146 4 204 -24 52
-24 51 -5 51 27 0 33 41 20 135 -7 51 -9 97 -4 106 15 30 95 40 299 37 183 -3
198 -2 243 19 46 21 59 19 35 -5 -15 -15 35 -15 228 -3 142 10 175 20 218 71
34 41 33 63 -3 76 -20 8 -33 24 -46 58 -20 52 -17 63 15 46 26 -14 38 -5 24
17 -27 44 -228 64 -382 39z m-158 -77 c54 -15 33 -34 -28 -25 -33 5 -44 11
-39 22 6 17 16 17 67 3z m-641 -10 c31 -7 54 -16 51 -20 -3 -5 -49 -9 -102 -9
l-97 1 24 19 c27 23 46 24 124 9z m473 -94 c4 -8 11 -12 18 -9 6 3 -2 -6 -17
-20 -35 -33 -55 -33 -67 -1 -5 14 -15 25 -22 25 -9 0 -8 3 2 10 24 15 80 12
86 -5z m-513 -177 c8 -29 2 -34 -31 -22 -39 14 -42 44 -4 44 22 0 31 -6 35
-22z m75 -443 c37 -31 48 -75 31 -117 -11 -27 -15 -29 -43 -22 -17 4 -43 7
-58 7 -38 0 -35 10 12 45 35 25 38 31 25 42 -19 16 -19 30 0 30 23 0 18 19 -7
30 -17 6 -18 9 -6 9 9 1 30 -10 46 -24z m169 -141 c2 -7 -8 -15 -22 -18 -22
-6 -24 -9 -15 -26 8 -14 21 -20 45 -20 40 0 45 -12 14 -33 -14 -10 -34 -13
-61 -9 -40 5 -41 5 -34 -22 6 -26 6 -27 -29 -20 -33 6 -35 5 -35 -20 0 -24 -2
-25 -25 -14 -22 10 -25 17 -25 64 0 50 1 53 33 63 17 6 52 25 77 41 45 30 70
35 77 14z m486 -19 c54 -23 58 -35 21 -64 -37 -29 -42 -27 -46 22 -2 35 -7 43
-26 45 -12 2 -20 8 -16 13 3 6 9 9 13 7 4 -2 28 -12 54 -23z"/>
<path d="M11152 2004 c-31 -22 -27 -34 11 -34 37 0 58 15 50 36 -7 18 -33 18
-61 -2z"/>
<path d="M9815 2933 c-76 -10 -200 -45 -247 -69 -193 -97 -306 -224 -338 -378
-21 -103 3 -278 50 -354 18 -29 23 -31 41 -21 19 10 20 8 14 -10 -8 -27 75
-117 142 -154 60 -32 177 -65 263 -73 36 -4 115 -24 175 -46 61 -22 142 -45
180 -53 144 -27 226 -73 273 -154 22 -38 27 -58 26 -111 -1 -147 -90 -237
-272 -275 -200 -43 -360 10 -439 145 -78 136 -111 184 -151 226 -43 43 -45 44
-110 44 -103 0 -154 -42 -183 -150 -11 -42 -10 -49 15 -95 14 -27 26 -55 26
-62 0 -7 9 -37 21 -67 51 -137 220 -269 414 -321 82 -23 295 -31 393 -15 42 7
112 23 156 37 l78 25 -7 61 c-7 69 -17 87 -49 87 -19 1 -19 2 -3 11 9 6 63 13
120 16 83 4 106 2 122 -11 20 -15 20 -15 -1 -16 -35 0 -74 -38 -74 -71 0 -33
16 -37 46 -13 13 11 15 17 6 20 -18 8 -4 24 20 24 29 0 122 72 159 123 65 88
93 201 70 282 -9 32 -8 41 4 48 17 9 20 38 4 54 -6 6 -11 42 -12 80 -4 129
-91 260 -180 270 -39 5 -43 8 -40 27 5 25 -15 35 -197 98 -177 61 -450 110
-450 80 0 -5 23 -29 51 -53 59 -49 51 -64 -29 -53 -63 8 -80 18 -64 36 9 11 8
26 -1 63 -11 46 -15 50 -57 63 -31 9 -74 12 -141 8 l-97 -6 -4 30 c-4 27 0 33
29 46 39 19 46 58 12 69 -29 9 -19 42 39 129 31 48 45 79 44 97 -2 16 6 37 23
57 19 23 24 37 19 56 -3 14 -3 33 0 42 6 15 8 15 31 0 30 -19 35 -20 35 -3 0
23 40 57 65 57 35 0 31 -10 -20 -48 -55 -40 -73 -69 -49 -79 10 -3 31 1 47 11
16 9 32 14 36 11 3 -4 -2 -11 -12 -16 -28 -16 -9 -29 42 -29 31 0 53 5 61 15
11 13 15 14 29 2 9 -8 48 -25 86 -37 95 -31 138 -54 168 -90 25 -29 29 -30 80
-24 40 5 62 2 85 -10 32 -16 32 -16 32 9 0 25 10 32 24 18 4 -5 31 -8 58 -8
35 0 53 -4 56 -14 4 -11 -2 -13 -26 -8 -31 6 -31 6 -34 -41 -2 -39 -7 -48 -24
-50 -14 -2 -24 5 -32 23 -6 14 -15 25 -20 25 -8 0 -62 -103 -62 -120 0 -5 16
-6 37 -3 33 6 36 4 31 -15 -6 -20 -2 -22 38 -22 70 0 129 40 154 104 40 107
-34 306 -114 306 -15 0 -26 -6 -26 -13 0 -7 -16 -29 -35 -47 -34 -33 -39 -35
-100 -32 -36 2 -73 -1 -85 -8 -14 -8 -25 -8 -29 -2 -3 5 -16 12 -28 16 -12 4
-33 20 -47 37 -19 22 -33 29 -60 29 -19 0 -38 5 -41 10 -3 6 2 10 12 10 10 0
77 7 149 14 72 8 167 12 212 9 53 -4 82 -2 82 4 0 39 -205 158 -292 169 -45 6
-47 6 -41 -16 5 -20 3 -22 -13 -15 -74 31 -273 58 -349 48z m224 -49 c9 -8
-23 -24 -37 -19 -8 3 -22 5 -33 5 -11 0 -19 7 -19 16 0 14 7 15 42 10 23 -4
45 -9 47 -12z m94 -45 c47 -13 41 -21 -26 -34 -44 -9 -52 -14 -50 -32 2 -16
-4 -22 -27 -25 -35 -5 -36 -2 -10 37 11 17 20 38 20 48 0 20 34 23 93 6z
m-180 -46 c12 -12 -26 -43 -52 -43 -18 0 -22 3 -12 9 10 6 10 10 1 16 -9 6 -9
10 1 16 17 10 53 12 62 2z m-361 -31 c7 -7 -4 -18 -32 -32 -23 -12 -45 -19
-48 -16 -3 3 0 6 6 6 18 0 14 18 -8 37 -13 11 -16 19 -9 24 13 8 78 -6 91 -19z
m131 -595 c26 -11 46 -25 44 -31 -1 -6 -27 -23 -57 -38 -63 -33 -140 -37 -195
-11 -58 28 -38 38 69 35 97 -3 98 -3 94 20 -3 25 -17 27 -75 14 -27 -6 -33 -5
-33 9 0 37 67 38 153 2z m427 -75 c0 -18 -26 -32 -57 -32 -21 0 -36 -6 -39
-15 -9 -23 -26 -18 -22 7 2 12 14 28 28 35 28 14 90 17 90 5z m220 -65 c0 -7
10 -17 22 -22 13 -6 24 -18 26 -27 3 -15 -5 -18 -42 -20 -25 -1 -54 -2 -63 -2
-26 -1 -30 41 -5 49 11 3 23 12 26 20 7 18 36 20 36 2z m-331 -16 c19 -12 6
-28 -30 -36 -22 -5 -36 -2 -49 10 -11 10 -17 22 -14 26 7 12 75 11 93 0z m-96
-80 c41 -16 34 -37 -15 -44 -40 -5 -98 0 -98 10 0 2 8 15 17 29 17 27 35 28
96 5z m552 -11 c23 -9 25 -13 15 -25 -13 -15 -50 -21 -50 -7 0 4 -3 18 -7 31
-4 15 -2 22 4 18 6 -4 23 -11 38 -17z m-235 -20 c0 -30 -11 -37 -45 -24 -14 6
-13 9 6 30 30 32 39 30 39 -6z m140 12 c0 -15 -31 -52 -44 -52 -16 0 -48 45
-39 54 9 9 83 7 83 -2z"/>
<path d="M8087 2840 c-60 -11 -134 -57 -191 -121 -46 -51 -69 -107 -81 -191
-6 -44 -4 -48 17 -52 69 -14 78 -17 78 -26 0 -6 -23 -10 -51 -10 l-50 0 -34
-72 c-40 -88 -125 -334 -205 -593 -32 -105 -85 -258 -118 -341 -77 -193 -129
-348 -137 -410 -16 -116 84 -223 208 -224 52 0 78 10 115 44 34 30 52 69 73
160 31 131 78 262 104 290 19 20 34 26 67 26 51 0 470 17 615 25 l101 6 22
-67 c27 -84 102 -234 148 -298 43 -58 114 -106 157 -106 65 0 147 43 181 95
19 28 8 54 -30 75 -14 7 -26 20 -26 28 0 12 5 11 23 -6 56 -53 55 28 -3 158
-16 36 -31 78 -35 94 -6 27 -8 28 -47 22 l-40 -7 25 30 25 30 -108 228 c-126
266 -255 560 -349 794 -76 188 -116 260 -183 329 -78 79 -166 108 -271 90z
m98 -497 c10 -3 15 -19 15 -46 0 -34 6 -46 39 -76 34 -32 39 -42 44 -98 4 -48
22 -100 86 -243 45 -100 84 -194 87 -209 l6 -28 -276 -13 c-152 -7 -279 -10
-283 -7 -3 4 15 69 40 144 62 185 77 249 77 326 0 58 3 66 21 72 21 7 47 50
36 61 -4 4 -13 1 -22 -6 -27 -22 -16 7 13 37 19 18 35 52 47 97 l19 68 18 -36
c11 -21 26 -40 33 -43z m-159 -798 c-7 -23 -17 -35 -29 -35 -29 0 -33 31 -8
52 37 30 50 24 37 -17z"/>
<path d="M5875 2740 c-250 -24 -313 -48 -356 -136 -31 -64 -39 -195 -15 -243
13 -25 14 -36 5 -53 -13 -25 -7 -144 9 -160 14 -14 52 8 52 31 0 9 -11 28 -25
41 -14 13 -25 26 -25 30 0 5 59 30 72 30 3 0 9 -11 12 -24 3 -14 16 -28 28
-32 21 -6 21 -7 -10 -36 -32 -28 -35 -55 -6 -44 9 4 18 -3 23 -17 12 -32 7
-35 -41 -26 -79 15 -88 13 -88 -23 0 -18 7 -133 17 -255 17 -215 18 -223 39
-223 34 0 36 -13 3 -27 l-31 -13 7 -112 c4 -62 11 -130 15 -150 4 -22 4 -55
-2 -77 -13 -50 0 -73 41 -76 35 -3 64 -22 58 -39 -2 -6 -24 -11 -48 -11 l-44
0 -3 -60 c-3 -78 8 -97 40 -68 34 30 69 46 79 36 5 -5 -15 -23 -51 -43 -59
-33 -60 -34 -54 -69 9 -50 29 -85 60 -110 l27 -22 29 28 c21 20 28 23 28 11 0
-9 -9 -18 -20 -21 -28 -7 -25 -34 4 -41 30 -7 70 7 109 40 16 13 49 30 72 36
38 10 44 16 50 44 3 18 12 37 20 44 20 17 10 30 -23 30 -17 0 -39 13 -62 35
-32 32 -38 34 -50 20 -13 -16 -30 -20 -30 -7 0 5 22 20 50 33 38 18 49 29 50
47 0 37 19 62 45 62 30 0 30 -6 9 205 -26 268 -14 298 116 297 87 0 150 -21
270 -88 52 -29 112 -60 133 -70 45 -21 48 -34 7 -34 -16 0 -30 -3 -30 -7 0 -5
43 -62 95 -128 52 -66 95 -123 95 -127 0 -4 23 1 50 11 28 11 50 17 50 15 0
-1 -11 -14 -25 -28 -19 -20 -25 -35 -25 -72 0 -39 5 -51 34 -80 19 -19 41 -34
50 -34 11 0 16 -9 16 -30 0 -25 8 -35 43 -58 25 -16 42 -33 39 -41 -5 -15 15
-31 40 -31 9 0 25 14 35 30 20 34 52 40 60 10 3 -11 8 -20 12 -20 21 0 166 68
174 82 14 21 -5 85 -35 124 -13 16 -23 40 -23 53 0 21 -7 27 -42 35 -54 14
-59 20 -39 52 23 34 16 57 -43 146 -47 69 -214 242 -309 319 -40 32 -42 37
-33 62 11 28 25 35 36 17 11 -18 53 -10 72 14 10 13 27 43 38 67 10 24 20 46
22 48 1 2 12 -8 24 -22 20 -27 49 -36 49 -16 0 5 22 32 48 59 91 92 132 201
132 350 0 179 -55 290 -198 397 -85 64 -110 76 -202 99 -63 15 -126 18 -400
20 -179 1 -361 -1 -405 -6z m744 -161 c32 -11 40 -26 18 -35 -18 -7 -89 24
-82 36 8 13 25 13 64 -1z m208 -98 l20 -49 -40 -16 c-39 -15 -41 -15 -65 9
-13 13 -40 27 -58 31 -51 9 -50 21 4 34 26 6 58 17 72 25 38 22 44 19 67 -34z
m-576 -32 c237 -18 369 -46 369 -78 0 -19 33 -59 64 -76 16 -9 16 -14 3 -66
-8 -30 -18 -94 -22 -142 -6 -75 -10 -87 -26 -87 -23 0 -109 -41 -109 -52 0 -4
11 -8 25 -8 14 0 25 -4 25 -9 0 -17 -37 -22 -84 -11 -56 12 -74 5 -52 -19 9
-10 13 -21 9 -24 -3 -4 12 -7 34 -7 25 0 46 -6 54 -16 12 -14 8 -15 -34 -9
-44 7 -47 6 -47 -14 0 -30 26 -37 65 -18 33 16 34 15 37 -6 2 -15 14 -26 37
-33 l34 -11 -24 -16 c-15 -11 -44 -17 -80 -17 -54 0 -57 2 -64 27 -9 37 -23
53 -48 53 -17 0 -19 -5 -14 -36 4 -25 2 -37 -9 -41 -14 -5 -20 -33 -7 -33 3 0
15 7 25 17 21 19 31 14 22 -11 -7 -18 -46 -31 -69 -22 -18 6 -30 35 -38 91
l-6 40 34 1 c32 0 75 26 75 45 0 4 -20 17 -45 29 -43 21 -49 21 -197 11 -84
-6 -179 -14 -210 -17 -49 -5 -58 -4 -58 10 0 9 -9 44 -21 78 -18 53 -19 64 -6
73 11 7 12 17 5 35 -5 14 -9 70 -8 125 1 55 2 123 3 152 l0 52 56 11 c82 17
123 29 151 44 16 9 27 11 31 4 3 -5 58 -14 120 -19z m347 14 c2 -9 -10 -13
-42 -13 -43 0 -55 7 -39 24 12 11 76 2 81 -11z m-857 -129 c-12 -21 -21 -49
-21 -61 0 -32 -17 -37 -35 -10 -23 36 5 93 55 109 23 8 23 3 1 -38z m25 -249
c11 -23 10 -25 -20 -29 -114 -18 -133 -7 -55 31 56 28 62 28 75 -2z m1264 -20
c0 -3 -18 -12 -40 -21 -22 -9 -46 -27 -53 -41 -12 -22 -15 -23 -26 -9 -11 13
-6 20 35 46 43 27 84 39 84 25z m-1357 -103 c16 -7 14 -11 -13 -37 -26 -25
-32 -27 -40 -15 -13 21 -12 26 6 44 17 17 20 18 47 8z m133 -497 c14 -45 1
-53 -31 -21 -36 36 -34 44 15 55 3 0 10 -15 16 -34z m-196 -210 c7 -9 10 -18
7 -22 -8 -7 -37 15 -37 28 0 14 16 11 30 -6z m170 -329 c4 -12 3 -29 -2 -39
-9 -17 -11 -17 -22 -2 -9 13 -17 14 -39 6 -37 -14 -47 -14 -47 3 0 7 14 16 31
20 19 3 33 13 36 25 6 24 32 17 43 -13z m120 -50 c0 -23 -2 -24 -31 -16 -18 5
-34 11 -36 14 -11 11 11 26 38 26 24 0 29 -4 29 -24z"/>
<path d="M4700 2649 c-52 -5 -127 -11 -167 -15 -60 -5 -73 -9 -78 -25 -4 -11
-18 -27 -31 -36 -23 -15 -26 -15 -38 2 -12 17 -17 15 -79 -19 -61 -34 -67 -36
-67 -18 0 11 -12 27 -26 37 -14 9 -24 22 -21 28 6 17 -314 3 -389 -17 -84 -22
-98 -40 -102 -134 -4 -74 -3 -79 25 -109 43 -46 112 -57 313 -49 159 6 262 -1
280 -20 5 -5 16 -175 25 -379 11 -266 22 -401 36 -485 24 -133 24 -117 8 -200
-15 -78 -7 -129 26 -169 30 -35 31 -41 5 -41 -10 0 -24 -9 -29 -19 -14 -25 1
-147 22 -187 34 -66 127 -123 200 -124 56 0 137 45 137 77 0 19 -31 16 -81 -6
-47 -21 -59 -20 -39 4 10 12 8 16 -11 24 -18 7 2 10 73 10 95 1 98 2 104 26 3
13 3 46 0 72 -4 27 -6 76 -6 111 l1 63 -52 -3 c-66 -4 -74 14 -14 30 25 7 48
19 51 26 3 8 -8 281 -26 606 -17 326 -30 593 -28 595 2 2 41 10 87 19 91 17
116 32 126 78 5 22 11 28 23 23 10 -4 49 -15 87 -25 39 -11 63 -19 54 -19 -26
-1 -55 -28 -43 -40 15 -16 166 4 180 24 6 8 21 15 32 15 50 0 102 143 73 199
-15 27 -71 55 -139 70 -60 12 -358 13 -502 0z m25 -75 c-24 -64 -70 -114 -104
-113 -14 0 -21 3 -15 5 8 3 10 19 7 43 -5 33 -1 41 28 66 34 28 91 57 98 49 2
-2 -4 -24 -14 -50z m-220 -76 c7 -6 3 -14 -9 -24 -26 -18 -56 -18 -56 1 0 8
-7 15 -15 15 -18 0 -20 16 -2 23 16 7 69 -3 82 -15z m650 -18 c-30 -32 -49
-37 -61 -18 -10 16 33 48 64 48 l26 0 -29 -30z m-944 -70 c25 -14 24 -40 -1
-40 -12 0 -32 -7 -45 -16 -13 -9 -32 -14 -42 -12 -15 3 -12 10 19 41 40 41 41
41 69 27z m1004 -19 c16 -7 13 -9 -18 -15 -41 -8 -68 1 -46 15 17 10 37 10 64
0z m-699 -103 c5 -7 7 -24 6 -39 -2 -24 2 -27 42 -33 46 -7 86 -30 74 -42 -4
-4 -25 0 -45 9 -21 9 -51 18 -68 19 -18 2 -29 8 -27 16 1 7 -4 28 -12 47 -14
33 -14 35 4 35 10 0 22 -5 26 -12z m32 -193 c23 -9 42 -21 42 -26 0 -15 -30
-25 -64 -21 -30 4 -34 8 -38 38 -3 22 0 33 6 30 6 -2 30 -12 54 -21z m-4 -146
c41 -11 39 -22 -6 -33 -22 -5 -26 -3 -22 9 4 10 -2 18 -17 24 -33 13 -2 13 45
0z m51 -105 c46 -19 65 -31 65 -44 0 -15 -8 -17 -52 -15 -40 2 -55 8 -69 26
-17 22 -26 59 -14 59 3 0 34 -12 70 -26z m-41 -483 c32 -34 22 -46 -30 -36
-36 6 -50 24 -40 50 9 24 40 18 70 -14z m113 -125 c-6 -17 -67 -20 -67 -3 0
21 7 24 40 19 17 -2 29 -9 27 -16z m-67 -86 c0 -6 -6 -12 -12 -14 -7 -2 -28
-8 -47 -14 -35 -12 -82 1 -65 18 20 19 124 27 124 10z"/>
<path d="M2345 2508 c-103 -36 -154 -185 -141 -418 3 -63 17 -239 30 -390 14
-151 27 -387 31 -524 6 -240 13 -338 36 -474 13 -75 52 -124 114 -141 58 -16
200 -13 455 9 124 11 271 20 327 20 138 0 379 28 423 48 67 32 80 119 33 212
-36 69 -50 78 -102 60 -38 -12 -43 -12 -64 8 -22 21 -25 21 -122 8 -55 -8
-231 -17 -392 -21 l-291 -7 -6 63 c-3 35 -13 204 -21 374 -22 458 -22 461 -50
473 -19 9 -23 20 -27 74 -6 68 -2 83 13 55 22 -39 29 -12 29 121 0 269 -32
411 -100 444 -39 20 -127 23 -175 6z"/>
<path d="M1739 2491 l-24 -20 55 -1 c30 0 60 -4 66 -8 7 -4 11 -25 10 -47 -1
-37 2 -41 37 -59 27 -13 48 -16 73 -11 34 6 35 8 29 38 -15 70 -32 96 -62 95
-25 0 -99 14 -144 28 -9 2 -27 -4 -40 -15z"/>
<path d="M1656 2434 c-27 -26 -20 -47 12 -39 33 8 57 29 48 44 -10 16 -42 13
-60 -5z"/>
<path d="M466 2409 c-33 -26 -52 -62 -61 -117 -7 -42 -6 -43 14 -33 28 15 27
0 -1 -18 l-22 -13 24 -13 23 -13 -28 -15 -29 -15 35 -7 c22 -5 57 -29 101 -71
59 -57 98 -79 98 -56 0 8 52 42 64 42 10 0 7 -38 -6 -65 -17 -37 -50 -41 -105
-14 -40 20 -51 32 -63 67 -13 39 -17 42 -51 42 -36 0 -69 -20 -69 -42 0 -5 8
-22 18 -36 33 -47 43 -89 25 -103 -25 -22 -34 -59 -27 -120 5 -47 10 -58 28
-63 24 -5 197 9 236 20 23 7 24 6 10 -11 -36 -44 -135 -58 -224 -31 l-48 15 6
-47 c4 -26 11 -153 16 -283 9 -228 22 -357 41 -407 8 -20 14 -23 39 -17 27 6
32 4 41 -23 8 -25 17 -30 51 -35 54 -7 74 -27 57 -56 -8 -11 -21 -19 -29 -17
-42 12 -86 15 -98 7 -11 -6 -6 -23 21 -78 42 -83 61 -102 85 -85 55 40 76 43
245 31 158 -12 187 -20 187 -51 0 -10 -75 -1 -157 19 -35 8 -72 11 -85 7 -13
-4 -50 -7 -84 -6 -40 1 -67 -3 -80 -13 -18 -15 -17 -17 31 -60 65 -59 191
-121 283 -140 92 -19 264 -19 362 0 41 8 109 19 150 24 246 30 390 121 479
303 82 167 107 336 97 666 -7 231 -13 271 -45 279 -19 5 -19 6 1 40 18 30 20
45 14 116 -9 114 -17 141 -46 145 -21 4 -22 2 -11 -12 17 -21 13 -25 -30 -28
-50 -4 -44 20 13 58 27 17 46 33 43 36 -3 2 2 26 11 52 12 34 13 51 6 58 -8 8
-13 7 -18 -5 -9 -23 -27 -21 -52 6 -31 33 -27 40 13 33 32 -6 36 -4 45 19 6
15 8 31 4 36 -6 10 -90 12 -186 2 -75 -7 -86 -20 -42 -49 45 -30 11 -38 -43
-10 -54 27 -64 53 -26 62 23 6 63 48 63 65 0 19 -143 -1 -156 -22 -2 -5 -2
-30 2 -56 6 -47 7 -48 73 -81 77 -39 106 -41 114 -10 6 22 6 22 27 -4 11 -14
20 -28 20 -31 0 -3 -36 -17 -79 -32 -56 -18 -90 -24 -113 -20 l-34 7 3 -59 c1
-32 4 -95 6 -140 2 -55 9 -90 21 -108 16 -25 16 -27 -5 -44 -29 -24 -19 -67
26 -111 19 -19 35 -42 35 -52 0 -21 -1 -21 -33 -9 l-24 9 4 -151 c2 -84 5
-216 7 -294 3 -133 2 -143 -15 -143 -22 0 -34 -53 -26 -106 5 -31 3 -34 -21
-40 -54 -11 -126 -39 -129 -51 -2 -6 9 -14 24 -16 15 -3 59 -11 96 -18 84 -14
76 -31 -15 -34 -35 -1 -74 -7 -86 -14 -13 -7 -26 -10 -29 -7 -3 3 6 11 21 17
l26 12 -37 14 c-47 16 -77 17 -50 2 23 -14 22 -39 -3 -39 -14 0 -20 7 -20 23
0 23 -1 24 -62 14 -76 -11 -226 5 -301 33 -89 33 -129 75 -167 177 -19 48 -35
90 -37 92 -2 3 -17 -5 -33 -18 -24 -17 -30 -19 -30 -6 0 8 12 21 26 27 l27 13
-8 140 c-4 77 -8 160 -9 185 -4 88 -6 99 -31 129 -25 29 -25 30 -6 41 36 19
44 80 27 192 -9 54 -16 114 -16 133 0 40 -13 44 -61 20 -29 -15 -49 -13 -49 5
0 5 14 25 31 45 22 24 40 35 59 35 24 0 28 5 34 38 10 63 7 107 -14 174 -41
133 -108 188 -228 188 -55 0 -75 -4 -96 -21z m1224 -79 c0 -5 -4 -10 -10 -10
-5 0 -10 5 -10 10 0 6 5 10 10 10 6 0 10 -4 10 -10z m148 -297 c2 -7 -3 -13
-11 -13 -9 0 -17 -6 -19 -12 -3 -7 -16 -14 -29 -15 -13 0 -34 -4 -46 -8 -36
-11 -29 22 10 45 34 22 88 23 95 3z m162 -85 c0 -6 -6 -8 -13 -5 -7 3 -21 -1
-32 -9 -24 -17 -58 -18 -53 -1 10 29 98 43 98 15z m-1473 -440 c26 -24 31 -66
9 -74 -30 -11 -96 56 -96 97 0 18 60 2 87 -23z m1481 -35 c-4 -20 -54 -31 -70
-15 -17 17 1 32 38 32 28 0 35 -4 32 -17z"/>
<path d="M16461 2005 c-45 -32 -112 -45 -226 -45 -82 0 -95 -2 -95 -17 0 -9 9
-26 20 -38 17 -18 18 -26 9 -60 -16 -56 -6 -302 15 -395 30 -128 67 -145 313
-142 168 1 287 13 386 38 47 12 76 13 158 4 126 -13 308 -13 417 0 145 16 212
73 212 177 0 48 -4 58 -30 83 -59 55 -113 65 -329 63 -181 -1 -194 -3 -207
-21 -13 -18 -22 -20 -89 -15 -59 5 -79 2 -99 -11 -21 -13 -34 -14 -68 -6 -24
5 -93 10 -155 10 -106 0 -113 1 -143 27 -23 19 -30 32 -27 47 3 12 11 41 17
66 7 29 9 83 4 153 -6 100 -8 107 -28 107 -11 -1 -36 -12 -55 -25z m-81 -221
c0 -31 -33 -85 -61 -99 -37 -20 -39 -19 -39 10 0 39 22 77 55 91 39 17 45 17
45 -2z m210 -277 c0 -19 -58 -97 -71 -97 -8 0 -7 5 1 15 8 9 11 30 7 55 -5 40
-5 40 29 40 22 0 34 -5 34 -13z m762 -82 c5 -47 0 -50 -34 -18 -36 35 -36 53
1 53 26 0 29 -4 33 -35z"/>
<path d="M13944 1859 c-12 -20 13 -32 53 -24 35 6 37 8 18 21 -22 17 -61 18
-71 3z"/>
<path d="M11226 1735 c-43 -35 -108 -49 -223 -50 -98 0 -103 -1 -103 -21 0
-11 9 -29 19 -38 17 -15 18 -22 8 -54 -23 -79 -8 -308 29 -440 14 -49 19 -55
62 -75 35 -15 74 -22 152 -25 131 -5 361 12 460 36 59 14 90 16 145 9 39 -4
167 -7 285 -5 178 3 222 7 255 21 76 34 115 90 115 165 0 50 -26 83 -88 114
-45 22 -57 23 -255 23 -187 0 -210 -2 -221 -17 -11 -15 -29 -18 -103 -18 -49
0 -94 -5 -100 -11 -7 -7 -36 -7 -99 2 -48 6 -113 9 -143 6 -100 -11 -153 31
-130 100 12 37 15 276 3 294 -9 16 -38 9 -68 -16z m-86 -225 c0 -46 -54 -110
-93 -110 -28 0 -13 58 24 93 29 27 69 37 69 17z m209 -275 c6 -6 -60 -105 -70
-105 -13 0 -11 17 2 26 7 4 9 22 6 45 -3 21 -2 41 1 44 6 6 53 -2 61 -10z
m756 -67 c4 -13 9 -31 11 -40 8 -29 -22 -21 -51 14 -20 24 -23 33 -13 39 24
15 47 9 53 -13z"/>
<path d="M21345 1415 c-271 -13 -313 -19 -398 -60 l-37 -19 -30 29 c-25 24
-34 27 -67 21 -21 -3 -240 -15 -488 -26 -247 -11 -542 -26 -655 -34 -113 -8
-288 -18 -390 -21 -287 -9 -489 -23 -586 -41 -70 -13 -172 -17 -469 -19 -236
-1 -399 -6 -430 -13 -27 -6 -198 -16 -380 -22 -285 -8 -472 -23 -564 -46 -19
-4 -22 -7 -11 -14 23 -14 4 -23 -34 -16 -27 5 -33 10 -29 26 5 18 0 19 -108
15 -115 -4 -160 -14 -191 -42 -15 -13 -20 -12 -48 9 -30 22 -32 22 -45 5 -11
-15 -13 -16 -19 -2 -8 21 -33 19 -63 -5 -28 -22 -54 -26 -50 -9 9 42 -218 36
-778 -21 -220 -22 -428 -40 -462 -40 -35 0 -63 -4 -63 -8 0 -5 18 -17 40 -27
22 -10 40 -22 40 -27 0 -14 -37 -9 -50 7 -17 21 -23 19 -43 -15 -10 -16 -29
-33 -42 -36 -24 -6 -24 -7 -9 -34 16 -25 16 -31 0 -75 -9 -27 -16 -51 -16 -54
0 -14 683 11 943 34 89 8 207 15 262 15 55 -1 311 12 569 27 464 27 470 28
495 51 36 33 91 54 91 34 0 -4 -16 -14 -35 -21 -19 -7 -35 -15 -35 -19 0 -4
48 -8 107 -9 115 -2 138 5 129 43 -4 13 0 27 9 34 8 7 25 30 37 51 24 43 34
47 64 24 19 -14 19 -15 -3 -21 -32 -9 -29 -24 5 -24 26 0 27 -2 24 -40 -7 -69
-18 -67 224 -53 121 6 264 16 319 22 55 6 150 11 210 11 l111 0 9 32 c14 45
32 47 27 3 -5 -39 1 -41 93 -28 35 4 49 11 53 25 3 13 10 17 21 13 9 -4 36
-12 60 -18 40 -11 44 -10 62 11 19 25 42 22 32 -3 -7 -19 -19 -20 517 10 802
44 974 56 983 71 13 22 66 46 87 39 25 -8 25 -21 3 -35 -14 -9 12 -10 102 -6
782 34 1266 58 1293 62 l33 5 -8 92 c-4 51 -7 116 -6 145 l2 52 -72 -1 c-40
-1 -193 -7 -342 -14z m-2852 -204 c63 -27 65 -38 5 -36 -41 1 -53 6 -59 21
-16 41 -10 42 54 15z m1827 10 c0 -16 -31 -41 -51 -41 -29 0 -23 27 9 38 35
14 42 14 42 3z m-2050 -50 c0 -5 -8 -19 -18 -32 -14 -16 -24 -20 -38 -15 -18
7 -17 9 9 32 29 25 47 31 47 15z m-1842 -77 c-14 -14 -14 -20 -2 -50 8 -19 12
-34 9 -34 -11 0 -75 63 -75 75 0 13 21 21 65 24 18 1 18 0 3 -15z m753 6 c34
-19 22 -37 -28 -43 -27 -3 -58 -9 -70 -12 -14 -5 -23 -3 -23 3 0 6 9 13 19 17
10 3 21 15 24 25 6 22 45 27 78 10z m1163 -63 c16 -12 16 -14 2 -26 -10 -9
-29 -11 -52 -8 -43 7 -48 11 -41 32 8 19 66 20 91 2z m-1725 -70 c16 -20 3
-27 -51 -27 -53 0 -63 13 -20 28 38 15 58 14 71 -1z m121 -7 c0 -14 -35 -30
-64 -30 -30 0 -34 14 -8 29 22 13 72 14 72 1z m615 -10 c-3 -5 -11 -10 -16
-10 -6 0 -7 5 -4 10 3 6 11 10 16 10 6 0 7 -4 4 -10z m-2255 -30 c13 -8 13
-11 0 -24 -8 -8 -32 -22 -53 -31 -37 -15 -37 -15 -47 10 -15 39 -13 43 23 48
57 7 62 7 77 -3z"/>
<path d="M14665 1069 c-27 -5 -69 -7 -92 -4 -35 5 -43 3 -53 -14 -14 -27 -30
-27 -30 -1 0 22 -20 26 -49 11 -10 -6 -127 -12 -260 -15 -134 -3 -282 -11
-329 -16 -46 -6 -112 -10 -146 -9 -67 3 -383 -23 -601 -48 -77 -9 -156 -16
-175 -15 -19 1 -102 4 -184 6 -139 5 -152 3 -214 -20 -43 -16 -68 -21 -72 -14
-14 23 -562 5 -754 -25 -55 -8 -104 -15 -109 -15 -5 0 -4 -6 2 -14 15 -18 0
-24 -41 -18 -24 4 -27 8 -22 28 6 23 5 23 -68 18 -160 -10 -180 -13 -215 -34
l-36 -21 -30 22 -30 22 -19 -26 c-19 -27 -89 -54 -108 -42 -6 3 -10 18 -10 32
l0 25 -137 -6 c-76 -3 -181 -11 -233 -16 -52 -6 -345 -22 -650 -36 -305 -14
-1024 -50 -1598 -79 -574 -30 -1111 -55 -1194 -55 -105 0 -286 -14 -597 -45
-245 -24 -464 -45 -486 -47 l-40 -3 44 -23 c30 -16 40 -27 33 -34 -7 -7 -19
-4 -39 10 l-29 20 -16 -29 c-10 -16 -28 -34 -42 -40 -23 -11 -24 -13 -9 -35
13 -21 13 -28 -2 -74 -9 -28 -15 -54 -12 -56 8 -8 663 14 869 30 101 7 199 13
218 14 37 0 208 8 405 18 74 4 137 13 165 23 40 15 52 15 107 3 52 -12 78 -12
148 -2 47 7 85 14 85 17 0 3 -8 12 -17 20 -17 13 -16 14 5 9 13 -2 41 2 63 9
36 13 39 13 50 -7 11 -20 9 -21 -19 -15 -27 6 -52 -6 -40 -19 6 -5 945 31
1198 47 102 6 256 17 342 24 86 8 435 28 775 45 340 16 818 42 1063 55 440 25
445 26 470 50 28 26 79 49 89 39 3 -4 2 -8 -4 -11 -91 -34 -78 -48 42 -45 135
4 136 4 128 42 -4 16 -3 30 2 30 5 0 22 22 38 50 17 27 33 50 36 50 3 0 14 -6
25 -14 19 -15 19 -15 -1 -30 -18 -14 -18 -15 -2 -16 13 0 17 -9 17 -44 0 -26
6 -48 15 -56 16 -13 57 -11 1040 54 286 19 644 38 795 41 426 11 506 17 575
49 33 15 66 24 77 20 19 -6 68 19 68 35 0 5 -9 7 -20 4 -17 -5 -20 0 -20 30 0
32 -3 35 -35 41 -19 4 -35 11 -35 15 0 5 20 35 45 67 25 31 45 61 45 66 0 10
-89 8 -155 -3z m-1407 -157 c3 -16 -4 -25 -23 -32 -47 -18 -60 5 -23 40 26 24
42 21 46 -8z m737 -31 c19 -7 18 -10 -12 -39 -45 -45 -83 -43 -49 3 8 11 12
25 9 32 -6 14 20 16 52 4z m-2809 -60 c-14 -16 -15 -23 -6 -41 6 -11 10 -26 8
-31 -4 -13 -54 25 -68 51 -9 17 -6 21 22 29 54 15 64 14 44 -8z m761 -2 c18
-16 16 -29 -5 -29 -10 0 -41 -6 -70 -14 -29 -7 -52 -9 -52 -4 0 5 7 11 16 15
8 3 20 17 25 31 8 21 14 24 41 18 17 -3 37 -11 45 -17z m1563 -33 c0 -8 -15
-16 -37 -20 -21 -3 -50 -12 -65 -20 -25 -13 -30 -13 -53 6 -42 33 -31 40 48
33 43 -3 78 -2 87 4 19 14 20 14 20 -3z m-3097 -33 c-7 -2 -13 -9 -13 -15 0
-6 6 -8 13 -5 52 21 50 21 38 -2 -17 -31 -36 -35 -60 -15 -15 13 -18 21 -9 31
6 7 18 13 27 12 10 0 11 -2 4 -6z m966 -76 c-2 -2 -26 -7 -52 -11 -58 -7 -61
12 -6 31 27 9 37 9 48 -3 8 -7 13 -15 10 -17z m111 -2 c-7 -9 -29 -15 -52 -15
-35 0 -39 2 -28 15 7 9 29 15 52 15 35 0 39 -2 28 -15z m620 -5 c0 -5 -2 -10
-4 -10 -3 0 -8 5 -11 10 -3 6 -1 10 4 10 6 0 11 -4 11 -10z m-1053 -26 c-3 -3
-12 -4 -19 -1 -8 3 -5 6 6 6 11 1 17 -2 13 -5z m-4813 -199 c0 -14 -63 -55
-84 -55 -21 0 -34 51 -17 63 17 10 102 4 101 -8z"/>
<path d="M5880 613 c-25 -2 -83 -10 -128 -19 -47 -8 -102 -12 -125 -9 -23 4
-130 2 -237 -4 -107 -6 -285 -16 -395 -21 -110 -6 -256 -20 -325 -32 -141 -24
-141 -24 -305 -14 -90 6 -222 2 -530 -18 -356 -23 -1907 -106 -1971 -106 -20
0 -22 -3 -14 -29 6 -22 4 -33 -6 -42 -23 -19 -17 -27 27 -34 41 -7 49 -17 65
-80 6 -25 5 -25 -63 -25 -77 0 -183 18 -183 31 0 5 13 15 29 24 29 14 71 60
71 76 0 5 -20 6 -45 2 -52 -7 -58 6 -13 27 48 23 47 40 -2 40 -23 0 -301 -14
-618 -31 -403 -21 -579 -34 -584 -42 -4 -7 -9 -16 -11 -22 -2 -5 -14 -1 -25 9
-20 17 -32 18 -154 11 -73 -4 -143 -7 -155 -6 -23 1 -23 0 -23 -144 0 -79 3
-146 8 -148 4 -2 324 13 710 33 l704 38 42 41 c23 23 51 41 64 41 34 0 26 -17
-20 -47 -26 -16 -37 -28 -28 -30 26 -5 2401 127 2490 138 47 5 120 8 162 5
l78 -5 8 31 c11 42 30 48 24 8 l-4 -30 65 0 c63 0 97 14 97 41 0 5 13 3 30 -6
37 -19 94 -19 110 0 14 17 34 9 26 -11 -4 -11 10 -13 82 -8 48 3 281 16 517
28 423 22 431 23 495 50 36 16 78 27 93 27 31 -1 67 14 67 29 0 6 -9 10 -20
10 -16 0 -20 7 -20 30 0 31 -3 33 -53 45 l-28 6 51 65 c47 60 56 87 27 82 -7
-1 -32 -3 -57 -5z m-1402 -143 c50 -23 57 -43 10 -30 -20 6 -36 6 -43 0 -13
-11 -27 1 -38 33 -8 23 16 22 71 -3z m1286 -20 c-5 -33 -3 -43 12 -55 19 -13
19 -14 0 -21 -26 -10 -57 31 -46 60 5 12 11 29 14 39 11 35 26 17 20 -23z
m-1514 -9 c0 -6 -10 -21 -22 -35 -17 -19 -27 -23 -37 -17 -13 8 -13 12 -1 26
11 14 38 29 58 34 1 1 2 -3 2 -8z m77 -148 c7 -21 -31 -33 -71 -22 -35 10 -43
19 -29 33 11 11 96 2 100 -11z m-3743 -221 c5 -3 1 -11 -8 -18 -14 -10 -24
-10 -44 -1 -36 15 -35 14 -27 27 6 10 57 6 79 -8z"/>
</g>
</svg>
